<svg fill="none" height="185" viewBox="0 0 801 185" width="801" xmlns="http://www.w3.org/2000/svg" xmlns:xlink="http://www.w3.org/1999/xlink"><linearGradient id="a" gradientUnits="userSpaceOnUse" x1="97.8341" x2="97.8341" y1="8.29709" y2="173.054"><stop offset="0" stop-color="#4387fd"/><stop offset="1" stop-color="#4683ea"/></linearGradient><clipPath id="b"><path d="m.21875.449219h800v184h-800z"/></clipPath><g clip-path="url(#b)"><path d="m45.3989 164.999-38.02318-65.8663c-2.97492-5.1597-2.97492-11.4814 0-16.641l38.02318-65.8665c2.9749-5.1597 8.4599-8.32051 14.4097-8.32051h76.0464c5.95 0 11.435 3.16081 14.41 8.32051l38.023 65.8665c2.975 5.1596 2.975 11.4813 0 16.641l-38.023 65.8663c-2.975 5.113-8.46 8.321-14.41 8.321h-76.0464c-5.9498 0-11.4348-3.208-14.4097-8.321z" fill="url(#a)"/><path d="m180.464 113.362-46.111-46.1114-8.507 1.7664-21.15-21.1498-6.7396 12.6434-3.6722 14.6422 6.2288 6.2287-11.9462 2.4171-16.3621-16.362-11.1094 10.6911 20.4525 20.4525-21.6611 17.2448 58.1973 58.197 28.354-.279z" fill="#000" opacity=".07"/><path d="m128.982 80.5183c4.261 0 7.716-3.4546 7.716-7.7162 0-4.2615-3.455-7.7162-7.716-7.7162-4.262 0-7.716 3.4547-7.716 7.7162 0 4.2616 3.454 7.7162 7.716 7.7162z" fill="#fff"/><path d="m66.6459 80.5183c4.2615 0 7.7162-3.4546 7.7162-7.7162 0-4.2615-3.4547-7.7162-7.7162-7.7162-4.2616 0-7.7162 3.4547-7.7162 7.7162 0 4.2616 3.4546 7.7162 7.7162 7.7162z" fill="#fff"/><path d="m97.8334 134.487c4.2616 0 7.7166-3.455 7.7166-7.716 0-4.262-3.455-7.716-7.7166-7.716s-7.7162 3.454-7.7162 7.716c0 4.261 3.4546 7.716 7.7162 7.716z" fill="#fff"/><path d="m99.6067 87.7005-3.5559 6.1589 31.1572 17.9886 3.556-6.159z" fill="#fff"/><path d="m96.0553 87.7259-31.1569 17.9891 3.556 6.159 31.1569-17.9892z" fill="#fff"/><path d="m101.354 54.7891h-7.1118v35.9779h7.1118z" fill="#fff"/><path d="m97.8364 103.247c6.8796 0 12.4576-5.5774 12.4576-12.4575s-5.578-12.4575-12.4576-12.4575c-6.8801 0-12.4575 5.5774-12.4575 12.4575s5.5774 12.4575 12.4575 12.4575z" fill="#fff"/><path d="m66.6478 118.589c5.4168 0 9.8079-4.392 9.8079-9.808 0-5.417-4.3911-9.8083-9.8079-9.8083s-9.808 4.3913-9.808 9.8083c0 5.416 4.3912 9.808 9.808 9.808z" fill="#fff"/><path d="m128.98 118.589c5.417 0 9.808-4.392 9.808-9.808 0-5.417-4.391-9.8083-9.808-9.8083s-9.808 4.3913-9.808 9.8083c0 5.416 4.391 9.808 9.808 9.808z" fill="#fff"/><path d="m97.8353 64.6198c5.4167 0 9.8077-4.3912 9.8077-9.808 0-5.4167-4.391-9.8079-9.8077-9.8079-5.4168 0-9.808 4.3912-9.808 9.8079 0 5.4168 4.3912 9.808 9.808 9.808z" fill="#fff"/><g fill="#7f7f7f"><path d="m283.909 85.5125h-28.866v8.5529h20.453c-1.023 11.9926-11.017 17.1056-20.406 17.1056-12.039 0-22.591-9.482-22.591-22.7766 0-12.9687 10.04-22.9161 22.591-22.9161 9.715 0 15.432 6.1822 15.432 6.1822l5.996-6.2287s-7.669-8.5529-21.707-8.5529c-17.85 0-31.702 15.0605-31.702 31.3761 0 15.944 13.016 31.516 32.12 31.516 16.827 0 29.145-11.528 29.145-28.5876.047-3.6256-.465-5.6709-.465-5.6709z"/><path d="m307.52 79.2812c-11.853 0-20.313 9.2502-20.313 20.0343 0 10.9695 8.228 20.3595 20.453 20.3595 11.063 0 20.127-8.46 20.127-20.1271.046-13.3407-10.505-20.2667-20.267-20.2667zm.14 7.9487c5.81 0 11.341 4.6948 11.341 12.2715 0 7.4376-5.485 12.2716-11.341 12.2716-6.462 0-11.528-5.16-11.528-12.3181-.047-6.9724 4.973-12.225 11.528-12.225z"/><path d="m351.727 79.2812c-11.853 0-20.313 9.2502-20.313 20.0343 0 10.9695 8.228 20.3595 20.453 20.3595 11.063 0 20.127-8.46 20.127-20.1271 0-13.3407-10.552-20.2667-20.267-20.2667zm.093 7.9487c5.811 0 11.342 4.6948 11.342 12.2715 0 7.4376-5.485 12.2716-11.342 12.2716-6.461 0-11.528-5.16-11.528-12.3181 0-6.9724 5.02-12.225 11.528-12.225z"/><path d="m395.051 79.332c-10.877 0-19.383 9.5291-19.383 20.1737 0 12.1783 9.901 20.2203 19.197 20.2203 5.764 0 8.832-2.278 11.063-4.927v3.997c0 6.973-4.23 11.156-10.644 11.156-6.182 0-9.25-4.602-10.366-7.205l-7.763 3.254c2.743 5.81 8.321 11.9 18.175 11.9 10.784 0 19.012-6.787 19.012-21.057v-36.3034h-8.46v3.4397c-2.51-2.8354-6.089-4.6483-10.831-4.6483zm.791 7.9022c5.345 0 10.784 4.5553 10.784 12.318 0 7.9018-5.439 12.2248-10.924 12.2248-5.81 0-11.202-4.695-11.202-12.1783.046-7.7162 5.671-12.3645 11.342-12.3645z"/><path d="m452.13 79.2812c-10.226 0-18.872 8.1346-18.872 20.1737 0 12.7361 9.575 20.2671 19.848 20.2671 8.553 0 13.806-4.695 16.92-8.879l-6.973-4.648c-1.812 2.835-4.834 5.578-9.9 5.578-5.671 0-8.274-3.114-9.901-6.136l27.099-11.2487-1.394-3.3003c-2.65-6.4147-8.785-11.8068-16.827-11.8068zm.325 7.7627c3.672 0 6.369 1.9523 7.484 4.323l-18.082 7.5767c-.79-5.8569 4.741-11.8997 10.598-11.8997z"/><path d="m420.332 118.56h8.925v-59.5912h-8.925z"/><path d="m532.29 78.8679c0 5.7639-1.953 10.1798-5.904 13.2942-3.951 3.1143-9.575 4.6483-16.873 4.6483h-6.694v22.3586h-6.6v-56.8956h14.735c14.224 0 21.336 5.5315 21.336 16.5945zm-29.424 12.2251h5.95c5.857 0 10.087-.9297 12.736-2.8355 2.603-1.9058 3.951-4.9272 3.951-9.1107 0-3.7651-1.255-6.5541-3.719-8.4134-2.463-1.8594-6.321-2.7425-11.527-2.7425h-7.391z"/><path d="m549.301 76.4996v27.6574c0 3.486.79 6.089 2.37 7.763 1.581 1.72 4.044 2.556 7.438 2.556 4.462 0 7.716-1.208 9.808-3.672 2.045-2.417 3.114-6.415 3.114-11.946v-22.4049h6.461v42.6719h-5.346l-.929-5.718h-.372c-1.302 2.092-3.161 3.719-5.485 4.834-2.371 1.116-5.02 1.674-8.042 1.674-5.206 0-9.064-1.255-11.667-3.719-2.603-2.463-3.858-6.414-3.858-11.853v-27.8899h6.508z"/><path d="m612.005 75.8003c5.624 0 9.947 1.9058 13.061 5.7174 3.115 3.8116 4.649 9.2502 4.649 16.2691 0 7.0192-1.581 12.4572-4.695 16.3152-3.115 3.858-7.484 5.811-13.015 5.811-2.789 0-5.3-.512-7.624-1.534-2.324-1.023-4.23-2.603-5.764-4.741h-.464l-1.348 5.485h-4.649v-60.5214h6.461v14.6886c0 3.3003-.093 6.2752-.325 8.8783h.325c3.022-4.23 7.484-6.3682 13.388-6.3682zm-.93 5.4385c-4.416 0-7.577 1.2551-9.529 3.8116-1.952 2.5101-2.929 6.7866-2.929 12.7829 0 5.9967.977 10.2727 2.975 12.8757 1.999 2.603 5.206 3.858 9.622 3.858 3.951 0 6.926-1.441 8.879-4.323 1.952-2.882 2.928-7.065 2.928-12.4572 0-5.5315-.976-9.6685-2.928-12.411-1.953-2.789-4.928-4.137-9.018-4.137z"/><path d="m662.626 62.2734-21.196 56.8956h-6.461l21.196-56.8956z"/><path d="m703.347 104.016c0 5.02-1.813 8.924-5.439 11.713s-8.553 4.184-14.781 4.184c-6.741 0-11.947-.883-15.572-2.603v-6.368c2.324.976 4.88 1.766 7.623 2.324 2.742.558 5.485.836 8.181.836 4.416 0 7.716-.836 9.947-2.51 2.232-1.673 3.347-3.997 3.347-6.972 0-1.952-.418-3.579-1.208-4.8343-.791-1.2551-2.092-2.4172-3.952-3.4863-1.859-1.0691-4.694-2.2776-8.459-3.6257-5.299-1.9058-9.065-4.1369-11.342-6.74-2.278-2.6031-3.394-5.9963-3.394-10.1798 0-4.3694 1.627-7.8556 4.928-10.4587 3.3-2.603 7.669-3.9046 13.061-3.9046 5.671 0 10.877 1.0227 15.619 3.1144l-2.046 5.7639c-4.694-1.9523-9.25-2.9749-13.712-2.9749-3.486 0-6.229.7437-8.228 2.2777-1.952 1.4874-2.974 3.5792-2.974 6.2752 0 1.9523.371 3.5792 1.069 4.8342.743 1.2551 1.952 2.4171 3.672 3.4862 1.72 1.0692 4.369 2.2312 7.902 3.4863 5.95 2.1382 10.087 4.4159 12.318 6.833 2.324 2.4636 3.44 5.6714 3.44 9.5294z"/><path d="m720.082 76.4996v27.6574c0 3.486.79 6.089 2.37 7.763 1.581 1.72 4.045 2.556 7.438 2.556 4.462 0 7.716-1.208 9.808-3.672 2.045-2.417 3.114-6.415 3.114-11.946v-22.4049h6.461v42.6719h-5.345l-.93-5.718h-.372c-1.301 2.092-3.161 3.719-5.485 4.834-2.371 1.116-5.02 1.674-8.041 1.674-5.207 0-9.065-1.255-11.668-3.719-2.603-2.463-3.858-6.414-3.858-11.853v-27.8899h6.508z"/><path d="m782.786 75.8003c5.624 0 9.947 1.9058 13.062 5.7174 3.114 3.8116 4.648 9.2502 4.648 16.2691 0 7.0192-1.581 12.4572-4.695 16.3152s-7.484 5.811-13.015 5.811c-2.789 0-5.299-.512-7.623-1.534-2.278-1.023-4.23-2.603-5.764-4.741h-.465l-1.348 5.485h-4.648v-60.5214h6.461v14.6886c0 3.3003-.093 6.2752-.326 8.8783h.326c3.021-4.23 7.483-6.3682 13.387-6.3682zm-.93 5.4385c-4.416 0-7.577 1.2551-9.529 3.8116-1.952 2.5101-2.928 6.7866-2.928 12.7829 0 5.9967.976 10.2727 2.975 12.8757 1.998 2.603 5.206 3.858 9.622 3.858 3.951 0 6.926-1.441 8.878-4.323s2.928-7.065 2.928-12.4572c0-5.5315-.976-9.6685-2.928-12.411-1.952-2.789-4.927-4.137-9.018-4.137z"/></g></g></svg>