<svg enable-background="new 0 0 200 100" viewBox="0 0 200 100" xmlns="http://www.w3.org/2000/svg" xmlns:xlink="http://www.w3.org/1999/xlink"><clipPath id="a"><path d="m72.4 2.1h55.3v95.5h-55.3z"/></clipPath><clipPath id="b"><path d="m72.4 2.1h55.3v95.5h-55.3z"/></clipPath><g fill="#0676b7"><path clip-path="url(#a)" d="m90.2 58.5c-11.5 3.2 7 9.6 21.6 3.5-2.4-.9-4.1-1.9-4.1-1.9-6.5 1.2-9.6 1.3-15.5.6-4.8-.5-2-2.2-2-2.2"/><path clip-path="url(#a)" d="m110.1 52.4c-8.6 1.7-13.6 1.6-20 1-4.9-.5-1.8-2.8-1.8-2.8-12.6 4.1 7.1 8.8 24.8 3.7-1.9-.7-3-1.9-3-1.9"/><path clip-path="url(#a)" d="m76.1 69.9c29.9 4.7 54.5-2.1 46.8-5.5 0 0 2.1 1.7-2.4 3-8.4 2.4-35.2 3.2-42.7 0-2.6-1.1 2.4-2.7 4-2.9 1.6-.4 2.5-.4 2.5-.4-2.8-1.9-19.1 4.1-8.2 5.8"/><path clip-path="url(#a)" d="m112.6 46.6c1.4-.9 3.4-1.7 3.4-1.7s-5.6 1-11.3 1.5c-6.9.5-14.3.6-18 .1-8.8-1.1 4.9-4.3 4.9-4.3s-5.4-.4-11.9 2.7c-7.6 3.7 19 5.3 32.9 1.7"/><path clip-path="url(#a)" d="m116 55.5c-.1.2-.2.4-.2.4 18.8-4.7 11.8-16.9 2.9-13.9-.9.2-1.3 1-1.3 1s.5-.2 1.6-.5c4.5-.8 11 6-3 13"/><path clip-path="url(#b)" d="m116.5 72.3c-11.5 2.1-25.8 1.8-34.2.5 0 0 1.8 1.5 10.6 1.9 13.5.9 34.2-.5 34.7-6.7 0 .1-1 2.5-11.1 4.3"/></g><path clip-path="url(#b)" d="m103.5 37c3.6 4-1 7.7-1 7.7s9.3-4.6 5-10.3c-3.9-5.5-6.9-8.2 9.4-17.3 0 0-25.7 6.2-13.4 19.9" fill="#e92a36"/><path clip-path="url(#b)" d="m100.1 42.1c-2.8-6.1-12.1-11.4 0-20.8 15.1-11.6 7.4-19.2 7.4-19.2 3.1 12.1-11 15.7-16.1 23.3-3.5 5.1 1.6 10.5 8.7 16.7" fill="#e92a36"/><path clip-path="url(#b)" d="m72.4 95.6 1.9-2.1c.8.8 1.6 1.3 2.5 1.3 1.1 0 1.9-.7 1.9-2.2v-8.6h3.1v8.8c0 1.6-.5 2.8-1.3 3.6s-2.1 1.2-3.6 1.2c-2.2 0-3.6-.9-4.5-2" fill="#e92a36"/><path clip-path="url(#b)" d="m90.5 94.7c2.5 0 4.2-1.6 4.2-4 0-2.4-1.7-4-4.2-4h-2.3v8.1zm-5.4-10.7h5.4c4.3 0 7.3 2.9 7.3 6.7 0 3.8-3 6.7-7.3 6.7h-5.4z" fill="#e92a36"/><path clip-path="url(#b)" d="m107.2 94.8c1.3 0 2.1-.5 2.1-1.5 0-.9-.7-1.5-2.2-1.5h-3.5v2.9zm-.8-5.4c1.3 0 2.2-.4 2.2-1.4 0-.9-.7-1.4-2-1.4h-3v2.8zm-5.8-5.4h6.4c1.6 0 2.8.4 3.6 1.2.6.6.9 1.4.9 2.3 0 1.5-.8 2.4-1.8 2.9 1.6.6 2.6 1.5 2.6 3.3 0 2.5-2 3.7-5.2 3.7h-6.6v-13.4z" fill="#e92a36"/><path clip-path="url(#b)" d="m114.3 90.7c0-3.8 3-7 7.2-7 2.6 0 4.2.8 5.4 2.1l-1.9 2.2c-1.1-.9-2.1-1.5-3.5-1.5-2.3 0-4 1.9-4 4.2 0 2.3 1.6 4.2 4 4.2 1.6 0 2.5-.6 3.6-1.6l1.9 1.9c-1.4 1.5-3 2.4-5.6 2.4-4.1 0-7.1-3-7.1-6.9" fill="#e92a36"/></svg>