<svg viewBox="0 0 200 100" xmlns="http://www.w3.org/2000/svg" xmlns:xlink="http://www.w3.org/1999/xlink"><clipPath><path d="m31.1 3.1h55.3v95.5h-55.3z"/></clipPath><clipPath id="a"><path d="m31.1 3.1h55.3v95.5h-55.3z"/></clipPath><clipPath id="b"><path d="m31.1 3.1h55.3v95.5h-55.3z"/></clipPath><clipPath id="c"><path d="m31.1 3.1h55.3v95.5h-55.3z"/></clipPath><clipPath id="d"><path d="m31.1 3.1h55.3v95.5h-55.3z"/></clipPath><clipPath id="e"><path d="m31.1 3.1h55.3v95.5h-55.3z"/></clipPath><clipPath id="f"><path d="m31.1 3.1h55.3v95.5h-55.3z"/></clipPath><clipPath id="g"><path d="m31.1 3.1h55.3v95.5h-55.3z"/></clipPath><clipPath id="h"><path d="m31.1 3.1h55.3v95.5h-55.3z"/></clipPath><g clip-path="url(#a)"><path d="m48.9 59.5c-11.5 3.2 7 9.6 21.6 3.5-2.4-.9-4.1-1.9-4.1-1.9-6.5 1.2-9.6 1.3-15.5.6-4.8-.5-2-2.2-2-2.2" fill="#0676b7"/></g><g clip-path="url(#b)"><path d="m68.8 53.4c-8.6 1.7-13.6 1.6-20 1-4.9-.5-1.8-2.8-1.8-2.8-12.6 4.1 7.1 8.8 24.8 3.7-1.9-.7-3-1.9-3-1.9" fill="#0676b7"/></g><g clip-path="url(#c)"><path d="m34.8 70.9c29.9 4.7 54.5-2.1 46.8-5.5 0 0 2.1 1.7-2.4 3-8.4 2.4-35.2 3.2-42.7 0-2.6-1.1 2.4-2.7 4-2.9 1.6-.4 2.5-.4 2.5-.4-2.8-1.9-19.1 4.1-8.2 5.8" fill="#0676b7"/></g><g clip-path="url(#d)"><path d="m71.3 47.6c1.4-.9 3.4-1.7 3.4-1.7s-5.6 1-11.3 1.5c-6.9.5-14.3.6-18 0-8.8-1.1 4.9-4.3 4.9-4.3s-5.4-.4-11.9 2.7c-7.6 3.7 19 5.3 32.9 1.7" fill="#0676b7"/></g><g clip-path="url(#e)"><path d="m74.7 56.5-.2.4c18.8-4.7 11.8-16.9 2.9-13.9-.9.2-1.3 1-1.3 1s.5-.2 1.6-.5c4.5-.8 11 6-3 13" fill="#0676b7"/></g><g clip-path="url(#f)"><path d="m75.2 73.3c-11.5 2.1-25.8 1.8-34.2.5 0 0 1.8 1.5 10.6 1.9 13.5.9 34.2-.5 34.7-6.7 0 0-1 2.5-11.1 4.3" fill="#0676b7"/></g><g clip-path="url(#g)"><path d="m62.2 38c3.6 4-1 7.7-1 7.7s9.3-4.6 5-10.3c-3.9-5.5-6.9-8.2 9.4-17.3 0 0-25.7 6.2-13.4 19.9" fill="#e92a36"/></g><g clip-path="url(#h)"><path d="m58.8 43.1c-2.8-6.1-12.1-11.4 0-20.8 15.1-11.6 7.4-19.2 7.4-19.2 3.1 12.1-11 15.7-16.1 23.3-3.5 5.1 1.6 10.5 8.7 16.7" fill="#e92a36"/></g><g fill="#e92a36"><path d="m111.4 54.3c0 1.4-.1 2.7-.4 3.9s-.8 2.3-1.6 3.2-1.7 1.6-3 2.1c-1.2.5-2.8.8-4.7.8s-1.8 0-2.6-.2-1.5-.4-2.2-.6c-.6-.2-1.2-.5-1.7-.8s-.9-.5-1.1-.8l1.6-3.2c.6.4 1.4.9 2.3 1.3.9.5 2.1.7 3.5.7 2 0 3.5-.5 4.4-1.5s1.4-2.8 1.4-5.3v-19.4h4.1v19.7z"/><path d="m131.5 59.7c-.3-.7-.7-1.5-1.1-2.6-.5-1-1-2.2-1.5-3.4s-1.1-2.4-1.7-3.7-1.2-2.5-1.7-3.6-1-2.1-1.5-3-.8-1.6-1.1-2.1c-.3 3.3-.6 6.9-.8 10.7-.2 3.9-.4 7.7-.5 11.7h-4c.1-2.5.2-5.1.4-7.6.1-2.6.3-5.1.5-7.6s.4-4.9.6-7.2c.2-2.4.4-4.6.7-6.7h3.6c.8 1.2 1.6 2.7 2.4 4.4.9 1.7 1.7 3.4 2.6 5.3.9 1.8 1.7 3.7 2.5 5.5s1.6 3.5 2.2 5c.7-1.5 1.4-3.2 2.2-5s1.7-3.7 2.5-5.5 1.7-3.6 2.6-5.3 1.7-3.1 2.4-4.4h3.6c1 9.4 1.7 19.1 2.1 29.1h-4c-.1-3.9-.3-7.8-.5-11.7-.2-3.8-.4-7.4-.8-10.7-.3.5-.7 1.2-1.1 2.1-.5.9-1 1.9-1.5 3s-1.1 2.3-1.7 3.6-1.2 2.5-1.7 3.7-1 2.3-1.5 3.4c-.5 1-.8 1.9-1.1 2.6h-3.3z"/><path d="m161.8 60.8c4.3 0 6.4-1.5 6.4-4.4s-.2-1.7-.6-2.3-.9-1.2-1.5-1.6c-.6-.5-1.4-.9-2.2-1.2s-1.7-.7-2.6-1c-1.1-.4-2.1-.8-3-1.2-1-.5-1.8-1-2.5-1.6s-1.3-1.4-1.7-2.2c-.4-.9-.6-1.9-.6-3.1 0-2.5.9-4.5 2.6-6 1.7-1.4 4.1-2.1 7.2-2.1s3.4.2 4.8.6 2.5.8 3.2 1.2l-1.3 3.3c-.6-.4-1.5-.7-2.6-1.1-1.2-.3-2.5-.5-4.1-.5s-1.5 0-2.2.3-1.3.4-1.8.8c-.5.3-.9.8-1.2 1.3s-.4 1.1-.4 1.8.2 1.4.5 2c.3.5.7 1 1.3 1.4s1.2.8 2 1.1 1.6.7 2.5 1c1.3.5 2.4 1 3.5 1.5 1 .5 2 1.1 2.7 1.8.8.7 1.4 1.5 1.8 2.5s.6 2.1.6 3.5c0 2.5-.9 4.5-2.8 5.9s-4.5 2.1-7.9 2.1-2.2 0-3.2-.2-1.8-.3-2.6-.5-1.4-.4-2-.7c-.5-.2-1-.4-1.3-.6l1.2-3.4c.6.4 1.6.8 2.9 1.2s2.9.7 4.8.7z"/></g></svg>