<svg viewBox="0 0 430.2 360.5" xmlns="http://www.w3.org/2000/svg"><g fill="#1758a5"><circle cx="137.7" cy="132.7" r="21.3"/><circle cx="214.5" cy="132.7" r="21.3"/><circle cx="291.4" cy="132.7" r="21.3"/><path d="m60.3 184.8c-.6-6.2-.8-12.4-1.8-18.5-1.5-9.6-8.8-17.1-18.4-18.8-4.7-.8-9.5-1.4-14.3-2-2.2-.3-3.1-1.3-3-3.5 0-6.3 0-12.6 0-18.9 0-2.7 1.9-3.3 4-3.6 5.5-.9 11.2-1.2 16.5-2.7 8.9-2.5 14.2-9 15.2-17.9 1.2-10.5.9-21.1 1.7-31.6.6-7.2 1.1-14.6 3-21.5 3-10.6 10.3-18 20.9-21.1 6.2-1.8 12.8-2.9 19.2-3.5 8.1-.8 16.2-.7 24.4-1.1 2.5-.1 3.5.9 3.3 3.4-.3 5.2-.5 10.5-.8 15.7-.3 4.1-.3 4-4.5 4.1-5.7.2-11.4.4-17 .9-5.4.5-8.8 4-10.3 8.9-1.2 4.2-1.8 8.6-2 12.9-.3 7.3 0 14.5-.1 21.8-.2 12.3-4.1 23.1-13.2 31.6-4.5 4.3-9.7 7.9-14.7 11.7-1.6 1.2-1.8 1.9 0 3 2.5 1.5 5 3.2 7.6 4.7 9.1 5.1 14.2 13.2 17.2 22.9 3.5 11.3 3.6 23.1 4 34.8.1 3.8 0 7.5 0 11.3.2 9.5 4.6 12 12.3 13.1 5.9.9 12 .9 18 1.2 2 0 2.9.8 2.9 2.8v17.6c0 1.9-.7 2.9-2.8 2.8-9.8-.4-19.6-.3-29.3-1.4-8.6-.9-17-3-24.3-8.2-6.3-4.5-9.6-10.8-11.5-18-2.9-10.8-3.2-21.9-2.5-33.1z"/><path d="m312.1 20.2c10.1 0 20.1.5 29.9 3.4 12.1 3.6 20.9 10.6 24.1 23.2 1.4 5.6 2.3 11.5 2.7 17.3.5 7.3 0 14.7.2 22.1.2 6.2.9 12.4 3.3 18.2 3.3 7.9 9.4 12.3 17.6 13.7 3.9.7 7.8.9 11.7 1.2 4.1.3 5.2 1.8 5 6-.3 5.3-.3 10.7-.2 16 0 3.5-.6 4.4-4.2 4.8-6.3.6-12.8.4-18.7 3.4-5.3 2.7-9.2 6.5-11.3 12.1-2.4 6.2-3.2 12.7-3.2 19.3 0 8.7.4 17.4-.3 26-.9 10.5-3.8 20.5-12.5 27.7-5.7 4.7-12.4 7.1-19.5 8.6-11.6 2.5-23.3 2.2-35 2.2-2.5 0-3.5-.8-3.3-3.3.3-5.7.5-11.4.6-17.1 0-2 .9-2.8 2.9-2.8 4.8 0 9.6 0 14.5-.2 2.5-.1 5-.8 7.4-1.5 6.1-1.9 7.8-7.1 8.2-12.5.7-9.4.6-18.9 1.3-28.3.4-5.7 1.2-11.5 2.6-17.1 3-12.2 10.7-20.8 21.9-26.4 1.7-.9 3.1-2.4 4.6-3.6-1.5-1-2.9-2.1-4.5-3-9.7-5.3-17.7-12.3-20.9-23.1-2-6.7-3.1-13.6-3.7-20.6-.8-9.4-.8-18.9-1.2-28.3-.3-8.5-4.7-12.6-13.6-13.1-5.8-.3-11.7-.8-17.5-1.1-1.8 0-2.5-.8-2.5-2.6 0-6 .1-11.9 0-17.9 0-2.1 1-2.8 2.9-2.7h10.8z"/></g><text fill="#494949" font-family="Objective-Medium, Objective" font-size="94" font-weight="500" transform="translate(83.7 344)"><tspan x="0" y="0">REST</tspan></text></svg>