<svg viewBox="0 0 509.9 257.4" xmlns="http://www.w3.org/2000/svg"><path d="m38.7 171.1c-4.2-12.2-17.5-122 121.2-141.3-36.9-23.7-194.5 38.3-121.2 141.3z" fill="#2ca9a7"/><path d="m263.6 53.7c70-15 166 171.8 0 190.8 78.2-75.9 42.8-166.4 0-190.8z" fill="#e8eaea"/><g fill="#a4a9ad"><path d="m114.2 190.8c-.8-.7-1.3-1.7-1.5-2.9l-15.8-85.3v-1.1c-.1-.8.2-1.5.7-2 .6-.5 1.2-.8 1.9-.8h11.7c2.2 0 3.5.9 3.7 2.7l11 60.3 12-39c.9-2.2 2.3-3.3 4.4-3.3h7.2c2.2 0 3.6 1.1 4.3 3.3l12.1 38.8 11-60.1c.2-1 .6-1.7 1.1-2.1.6-.4 1.4-.6 2.6-.6h11.7c.7 0 1.3.3 1.9.8s.8 1.2.8 2 0 .8-.1 1.1l-15.8 85.3c-.4 2.7-2 4-4.7 4h-8.9c-1.2 0-2.3-.3-3.1-.9s-1.3-1.4-1.6-2.4l-14.9-44.4-14.9 44.4c-.9 2.2-2.5 3.3-4.8 3.3h-8.9c-1.3 0-2.4-.4-3.2-1.1z"/><path d="m221.7 189.6c-5.7-2.4-10-5.5-12.9-9.4s-4.5-8.1-4.7-12.6c0-.8.3-1.5.8-2s1.2-.8 2-.8h11.8c1.1 0 1.9.2 2.5.6s1.1 1 1.7 1.9c.9 3 2.9 5.5 6.1 7.6 3.2 2 7.5 3.1 13 3.1s11-1 14.2-3.1 4.8-5 4.8-8.7-.8-4.5-2.5-6.1c-1.6-1.6-4.1-3-7.3-4.1-3.2-1.2-8-2.6-14.4-4.3-10.5-2.5-18.1-5.8-22.9-9.9s-7.2-10-7.2-17.6 1.4-9.7 4.2-13.7 6.8-7.1 12.1-9.4 11.4-3.5 18.4-3.5 13.6 1.3 18.9 3.9 9.4 5.8 12.2 9.6c2.8 3.9 4.3 7.7 4.5 11.5 0 .8-.3 1.5-.8 2s-1.2.8-2 .8h-12.4c-1.9 0-3.1-.8-3.9-2.5-.5-2.8-2.3-5.2-5.3-7.1s-6.7-2.9-11.2-2.9-8.9.9-11.7 2.8-4.3 4.6-4.3 8.1.7 4.5 2.1 6.1 3.7 3 6.7 4.3c3.1 1.2 7.5 2.6 13.2 4.1 7.8 1.8 14 3.8 18.7 6s8.1 5 10.3 8.4 3.3 7.7 3.3 12.9-1.6 10.6-4.7 14.8-7.6 7.4-13.3 9.6-12.3 3.3-19.8 3.3-14.7-1.2-20.4-3.6z"/><path d="m296 190.9c-.6-.6-.9-1.4-.9-2.3v-86.6c0-1 .3-1.8.9-2.4s1.4-.9 2.3-.9h32.5c26.1 0 39.4 12.1 39.9 36.2.2 5.1.3 8.6.3 10.4s0 5.1-.3 10.2c-.4 12.4-3.7 21.6-10 27.5s-16.1 8.8-29.3 8.8h-33.1c-.9 0-1.6-.3-2.3-.9zm34.7-14.4c7.4 0 12.8-1.7 16.1-5s5-8.8 5.2-16.4c.2-5.3.3-8.6.3-10s0-4.7-.3-9.8c-.2-7.3-2-12.6-5.5-16.1s-9-5.2-16.4-5.2h-16.5v62.5h17.2z"/><path d="m389.5 190.9c-.6-.6-.9-1.4-.9-2.3v-86.7c0-1 .3-1.8.9-2.3.6-.6 1.4-.9 2.3-.9h12.4c1 0 1.8.3 2.3.9.6.6.9 1.4.9 2.3v74.1h42.2c1 0 1.8.3 2.4.9s.9 1.4.9 2.4v9.3c0 1-.3 1.8-.9 2.3-.6.6-1.4.9-2.4.9h-57.7c-.9 0-1.6-.3-2.3-.9z"/></g></svg>