<svg height="796" viewBox="0 0 2076 796" width="2076" xmlns="http://www.w3.org/2000/svg"><path d="m1342.5 1.088c-17.309 1.779-34.258 6.773-50.665 14.931-20.964 10.423-34.563 22.121-41.729 35.894-8.056 15.486-7.308-8.651-8.255 266.087-.466 135.025-.598 252.25-.292 260.5 1.558 42.12 8.527 75.063 22.812 107.836 10.758 24.681 23.07 43.079 40.629 60.713 26.352 26.465 56.494 40.671 99 46.657 10.714 1.509 20.501 1.763 68.5 1.777 51.67.016 56.25-.12 59.233-1.75 5.601-3.061 6.7-6.547 6.533-20.733-.53-45.118-13.173-71.947-39.924-84.718-9.559-4.563-19.629-6.204-38.342-6.25-34.087-.083-50.73-5.04-63.094-18.792-9.484-10.548-15.044-25.291-21.349-56.611-8.049-39.98-8.525-51.279-8.542-202.879l-.015-125.75h20.776c23.699 0 34.092-1.043 45.13-4.53 32.552-10.283 53.998-48.484 54.076-96.318l.018-11.348-55.307.339c-62.161.382-59.604.668-61.611-6.89-.62-2.334-1.007-32.546-1.024-79.879-.014-41.869-.306-76.857-.649-77.75-.514-1.34-2.132-1.601-9.266-1.491-4.754.073-12.243.503-16.643.955m476 164.506c-44.877 3.444-80.391 11.58-122.5 28.066-21.536 8.431-33.009 14.246-62.032 31.442-20.962 12.419-23.808 14.398-22.716 15.794 7.869 10.067 30.32 35.375 36.734 41.409 23.801 22.391 46.323 26.048 76.991 12.503 26.787-11.83 49.294-18.422 75.023-21.973 14.714-2.031 52.325-1.743 63.374.486 56.826 11.462 86.871 48.672 90.291 111.826.628 11.588.618 11.661-1.971 14.25-2.451 2.451-3.178 2.603-12.425 2.603-5.402 0-13.41-.449-17.795-.998-24.391-3.051-93.806-2.801-123.974.448-78.367 8.438-142.601 34.706-177.973 72.781-28.099 30.245-40.962 66.095-44.589 124.269-1.957 31.38 1.068 56.285 9.6 79.027 22.79 60.751 89.392 108.262 163.956 116.958 33.204 3.872 66.997.418 98.506-10.068 43.875-14.602 78.231-40.028 102.939-76.183 7.633-11.17 9.782-13.846 10.523-13.106.909.91 2.466 20.148 2.504 30.938.043 12.025 1.441 19.671 5.058 27.647 10.961 24.173 51.697 42.287 95.101 42.287h12.875l.071-17.25c.431-105.277-.368-384.377-1.132-395.75-2.774-41.262-9.189-71.285-21.212-99.281-22.532-52.465-64.592-88.189-123.963-105.289-15.799-4.551-37.847-8.988-54.277-10.923-12.792-1.506-47.224-2.663-56.987-1.913m-1792.375 1.139-5.374.38.515 17.194c.399 13.349 1.014 19.093 2.749 25.693 10.032 38.157 35.971 63.745 75.253 74.238l8.232 2.198 123.25.312c67.787.172 123.25.559 123.25.861 0 .913-9.593 12.431-84.444 101.389-111.809 132.881-196.284 232.3-228.991 269.502-18.555 21.104-28.973 37.622-35.164 55.75l-3.842 11.25-.36 21.5c-.289 17.247-.04 22.88 1.259 28.478 2.28 9.828 5.459 14.811 11.278 17.676l4.764 2.346 273.291.259 273.29.259-.591-15.759c-.868-23.144-2.362-39.642-4.469-49.353-7.27-33.51-28.507-51.842-64.752-55.89-6.269-.7-16.376-.712-31.5-.037-24.527 1.095-222.595 1.396-240.48.366l-11.211-.646 2.193-3.1c2.145-3.033 91.496-111.573 250.783-304.643 88.772-107.599 89.987-109.114 94.082-117.226 5.675-11.241 6.325-15.725 6.346-43.73.017-24.221-.093-25.74-2.193-30.289-1.804-3.908-3.092-5.196-7-7l-4.789-2.211-260-.073c-143-.041-262.419.097-265.375.306m846.875.324c-66.388 3.081-124.259 20.051-169.5 49.703-73.482 48.162-121.251 126.016-133.6 217.74-2.885 21.434-3.142 59.194-.547 80.5 7.37 60.506 29.712 116.86 63.037 159 60.436 76.422 161.607 121.927 271.215 121.99 55.451.031 97.896-9.48 146.921-32.923 25.589-12.237 68.303-38.231 73.367-44.649 3.424-4.339 2.599-11.544-2.58-22.537-10.722-22.76-25.088-36.696-44.823-43.481-6.862-2.36-9.613-2.753-19.49-2.784-14.365-.046-21.352 1.818-40 10.671-30.676 14.562-56.27 21.584-90.311 24.776-14.65 1.374-60.339.717-73.189-1.053-30.047-4.138-54.799-12.658-73.871-25.43-7.419-4.968-31.629-26.758-31.629-28.467 0-.397 6.862-3.036 15.25-5.863 20.601-6.944 238.055-77.877 321.25-104.791 36.85-11.921 68.616-22.71 70.591-23.976 6.387-4.092 6.349-3.704 5.08-52.315-1.262-48.362-2.214-57.535-8.705-83.886-9.079-36.854-25.985-71.819-47.761-98.782-8.858-10.967-29.203-30.516-40.84-39.243-41.613-31.204-95.298-50.976-145.865-53.722-21.28-1.156-27.854-1.228-44-.478m-25.562 115.481c-77.771 11.356-133.832 71.792-144.95 156.263-1.672 12.697-1.939 42.619-.484 54.199 1.929 15.36 4.301 26 5.796 26 4.181 0 307.072-101.592 309.552-103.827 4.2-3.782 4.965-7.014 4.294-18.144-.959-15.924-3.72-27.413-9.491-39.494-20.799-43.541-58.129-68.897-111.129-75.482-11.459-1.424-42.435-1.143-53.588.485m1053.562 212.055c-13.475 1.301-41.375 3.967-62 5.924-20.625 1.958-42.45 4.267-48.5 5.132-23.638 3.379-49.349 11.486-65 20.496-25.235 14.527-39.84 30.98-47.587 53.611-3.226 9.423-3.337 10.271-3.375 25.744-.044 18.386 1.057 23.857 7.548 37.5 16.082 33.807 54.193 54.98 98.988 54.996 32.985.011 61.828-11.712 90.182-36.656 31.21-27.456 55.127-74.292 62.236-121.874 1.629-10.901 2.302-41.389 1.004-45.478-.791-2.494-1.525-2.481-33.496.605" fill="#64449a" fill-rule="evenodd"/></svg>