<svg fill="none" height="33" viewBox="0 0 33 33" width="33" xmlns="http://www.w3.org/2000/svg"><path d="m20.5937 26.2891c1.6-4.904 3.368-6.6734 8-8-4.632-1.3267-6.4-3.096-8-8-1.6 4.904-3.368 6.6733-8 8 4.632 1.3266 6.4 3.096 8 8zm-10.66664-12c.80004-2.4534 1.68404-3.3374 4.00004-4-2.316-.6627-3.2-1.5467-4.00004-4.00004-.8 2.45334-1.684 3.33734-4 4.00004 2.316.6626 3.2 1.5466 4 4zm2.00004 13.3333c.4-1.2267.8413-1.668 2-2-1.1587-.332-1.6-.7733-2-2-.4 1.2267-.8414 1.668-2.00004 2 1.15864.332 1.60004.7733 2.00004 2z" stroke="#ffb30f" stroke-linejoin="round" stroke-width="2"/></svg>