<svg height="112" preserveAspectRatio="xMidYMid" viewBox="0 0 512 112" width="512" xmlns="http://www.w3.org/2000/svg" xmlns:xlink="http://www.w3.org/1999/xlink"><linearGradient id="a" x1="90.642339%" x2="12.543206%" y1="10.337007%" y2="88.429048%"><stop offset="0" stop-color="#21d4fd"/><stop offset=".03" stop-color="#27cdfc"/><stop offset=".23" stop-color="#4e9cf4"/><stop offset=".43" stop-color="#6e73ee"/><stop offset=".61" stop-color="#8753e9"/><stop offset=".77" stop-color="#993ce5"/><stop offset=".9" stop-color="#a42ee3"/><stop offset="1" stop-color="#a829e2"/></linearGradient><path d="m198.536533 85.9449406h-7.847874l-6.460509-16.6893382h-27.558012l-6.460509 16.6893382h-7.757576l23.724219-60.1889823h8.767301zm-39.231301-23.5175564h22.246555l-11.172461-29.6485236zm63.193522 24.4341916c-4.305765.0394084-8.559399-.9305988-12.412121-2.830274-3.653198-1.7578666-6.691685-4.553697-8.726342-8.0284703l6.280223-4.4683636c1.280621 2.72384 3.352204 5.010463 5.951302 6.5688048 2.8672 1.6452267 6.142759 2.4653576 9.457105 2.3679225 3.283627 0 5.820044-.6162619 7.667278-1.8652316.699113-.4170472 1.30048-.9768339 1.763452-1.6418133.463282-.6646691.777309-1.4193261.92191-2.2137018.144601-.7943758.116054-1.6098521-.083782-2.3924364-.199835-.7825842-.566303-1.5139685-1.074889-2.1454351-.837198-1.0814061-2.421605-1.8571637-4.752912-2.3275831l-11.082162-2.3030691c-4.498774-.9082569-7.713823-2.4275006-9.64577-4.5574206-1.960805-2.1792581-3.003423-5.0169794-2.914366-7.9313454-.015825-2.4498424.744727-4.8432097 2.175535-6.844354 1.574477-2.1724315 3.708741-3.8887175 6.181546-4.9710545 2.977047-1.3038933 6.209164-1.9409455 9.464863-1.8652315 4.015321-.1235006 7.993717.7906521 11.542032 2.6518497 3.077896 1.7004606 5.533944 4.3169357 7.018744 7.4767515l-6.189615 4.05504c-.90174-2.5122133-2.711427-4.6061382-5.081522-5.8796218-2.231389-1.2210424-4.738638-1.8655418-7.289639-1.8732994-1.933808-.0437527-3.859549.2640679-5.680717.908257-1.407845.4989672-2.651229 1.368126-3.595482 2.5140751-.834094 1.0451006-1.276276 2.3434085-1.250831 3.6739879s.516965 2.6115103 1.390468 3.6246497c.919428 1.1245382 2.640368 1.93536 5.163442 2.4327757l11.542032 2.3759903c4.312281.8489891 7.322531 2.246594 9.029818 4.1928146 1.732422 1.9676315 2.654953 4.5052897 2.585755 7.1121454.053062 2.6859831-.754347 5.3198352-2.306482 7.5254691-1.630022 2.2316994-3.871651 3.9563637-6.460509 4.9713649-2.711635 1.0550303-5.58852 1.6255894-8.496624 1.6874866zm57.923025-46.5165964h7.938173l-21.68832 53.2635151c-.921911 2.5267976-2.213392 4.9065116-3.833484 7.0634275-1.209872 1.595889-2.792727 2.878371-4.613586 3.738531-1.847854.792825-3.847137 1.182875-5.861314 1.143467-1.950254.017067-3.890269-.275859-5.746191-.867918-1.666948-.53279-3.239874-1.317857-4.662924-2.327272l2.02752-6.382313c1.142536 1.0463418 2.473426 1.8717478 3.924092 2.4327757 1.306376.5163443 2.697775.7912728 4.104689.8111321 1.624747-.0096193 3.205741-.5200678 4.522977-1.4596654 1.294507-.8920178 2.487585-2.6267496 3.579474-5.2041956l2.692371-6.6521729-4.613586-10.8503661-14.677954-34.6602278h8.381596l14.398681 34.7412169zm14.283869 45.5999612v-45.5999612h6.444064l.640465 10.2179685-1.198701-1.0053818c.848679-2.2360437 2.208117-4.2480485 3.97312-5.8796219 1.649882-1.4866618 3.612238-2.5944436 5.747743-3.2435975 2.196946-.6665309 4.486982-1.0025891 6.786328-.9976243 3.112339-.0390982 6.196751.5976437 9.032921 1.8652315 2.684121 1.2235249 4.94623 3.1970522 6.507054 5.6766837 1.641503 2.5572072 2.463806 5.8011151 2.463806 9.7314133v29.1945503h-7.388315v-26.5914182c0-5.0439757-1.095369-8.5581575-3.283006-10.5422351-2.206254-1.980354-5.098279-3.04128-8.077188-2.9599806-2.305551.0217212-4.576969.5507879-6.650414 1.5487224-2.288795 1.1056097-4.1984 2.8510642-5.491743 5.0197721-1.444771 2.3139297-2.167157 5.4144776-2.167157 9.3016437v24.2557672zm68.121252-46.5042857 1.006506-.0039325c2.885818-.0555442 5.753018.44032 8.449552 1.4596655 2.380024.94208 4.53663 2.3710254 6.320872 4.1928145 1.824582 1.888194 3.292315 4.08576 4.331831 6.4875055l-7.009746 3.2439079c-.785067-2.6217503-2.342788-4.9533673-4.47457-6.6985116-2.259006-1.6294012-5.011393-2.4501527-7.807224-2.327583-2.789624-.0772654-5.542012.6345697-7.937551 2.0517236-2.262109 1.4224291-4.03394 3.4893576-5.079661 5.9283394-2.333479 6.0040534-2.333479 12.6479516 0 18.6516946 1.036412 2.4557382 2.808243 4.5388024 5.079661 5.9686788 2.155985 1.2754385 4.601018 1.9795688 7.102101 2.051314l.83545.0004096c2.131782.0493382 4.251152-.3230254 6.230885-1.0947491 1.697358-.6854594 3.189915-1.7814497 4.344242-3.1871224 1.182255-1.4956606 1.989043-3.2463903 2.3552-5.1088291l6.82977 2.3679224c-.958836 2.6478158-2.41726 5.0936243-4.291491 7.2092703-1.812169 2.0020752-4.058763 3.5762425-6.569115 4.6064485-2.7648 1.1124364-5.731297 1.6638449-8.716412 1.621954-4.030836.0664048-8.012024-.9091879-11.543273-2.830274-3.400921-1.8937794-6.159515-4.733983-7.937551-8.1665551-1.886643-3.9814982-2.864097-8.3235685-2.864097-12.7196315 0-4.3960631.977454-8.7384437 2.864097-12.7199419 1.781139-3.4307103 4.539733-6.2702933 7.937551-8.1662448 3.239822-1.7601422 6.857719-2.7245037 10.542973-2.8182736zm82.95133 46.5042857h-10.435491l-5.811975-15.7730133h-25.56897l-5.821285 15.7730133h-10.156218l22.987248-60.1889823h11.819443zm-39.051636-23.7121164h20.020751l-9.973139-28.0833551zm44.590545-36.476928h23.421673c3.897406-.0959146 7.763782.6832563 11.313649 2.2788034 3.034763 1.4281077 5.594763 3.6779598 7.388315 6.4877537 1.753212 3.0841019 2.674812 6.5622885 2.674812 10.1003637 0 3.5377648-.9216 7.0162618-2.674812 10.1003636-1.787346 2.8156897-4.350449 5.0672485-7.388315 6.4878158-3.192088 1.4418851-6.645574 2.2194641-10.14556 2.2895308l-14.73764-.0029078v22.4311854h-9.852122zm21.854643 29.3647826c4.378376 0 7.593115-.8973964 9.644218-2.6924994 2.054206-1.7947927 3.084412-4.3926497 3.096824-7.7932606 0-3.4601891-1.033309-6.0903176-3.096824-7.8906958-2.063515-1.8000678-5.278255-2.6977745-9.644218-2.6922406h-12.002521v21.0848321zm38.828218-29.3647205v60.1889823h-9.852121v-60.1889823z" fill="#0c0928"/><path d="m86.3349915 0h-59.5898182c-14.7709517 0-26.7451733 11.8290618-26.7451733 26.4209377v58.8670914c0 14.592 11.9742216 26.4210619 26.7451733 26.4210619h59.5898182c14.7707345 0 26.7450185-11.8290619 26.7450185-26.4210619v-58.8670914c0-14.5918759-11.974284-26.4209377-26.7450185-26.4209377z" fill="url(#a)"/><path d="m33.1400533 48.6412412 3.3655467-4.5819345 26.4660558 18.9762715-3.3655467 4.5819345zm16.9928146 0 3.3655466-4.5819345 26.4660558 18.9762715-3.3655467 4.5819345zm6.4276169-28.0347927c-13.9659574 0-25.3773896 8.403696-25.8282605 18.8608837l-.0138379.8615114h5.7462536v-.2187636c0-7.6312824 9.0301285-13.8431767 20.1122909-13.8431767s20.1122909 6.2118943 20.1122909 13.8431767v.2187636h5.7461915v-.2187636c-.0325818-10.7534274-11.6239515-19.5036315-25.8749285-19.5036315zm20.071331 50.9848048c0 7.6309722-9.0301285 13.8429285-20.1206691 13.8429285-11.0902303 0-20.1122909-6.2119563-20.1122909-13.8429285v-.2190739h-5.7461916v.2190739c0 10.7532412 11.5910594 19.5034764 25.8420364 19.5034764 13.9659574 0 25.377628-8.4037258 25.8285085-18.8607395l.0138382-.8618108h-5.7465018z" fill="#fff"/></svg>