<svg fill="none" height="33" viewBox="0 0 33 33" width="33" xmlns="http://www.w3.org/2000/svg"><g stroke="#ffb30f" stroke-linecap="round" stroke-linejoin="round" stroke-width="2"><path d="m12.3165 24.9479c2.4173-2.6053 6.8893-2.728 9.3333 0m-2.08-8c0 1.4734-1.1613 2.6667-2.596 2.6667-1.4333 0-2.596-1.1933-2.596-2.6667 0-1.4733 1.1627-2.6667 2.596-2.6667s2.5973 1.1934 2.5973 2.6667"/><path d="m13.6498 6.28906c-3.5253.01334-5.41196.136-6.63329 1.29334-1.36667 1.29466-1.36667 3.3787-1.36667 7.5467v6.316c0 4.168 0 6.2533 1.36667 7.5466 1.36666 1.296 3.56669 1.296 7.96669 1.296h4c4.4 0 6.6 0 7.9666-1.2946 1.3667-1.296 1.3667-3.38 1.3667-7.5467v-6.3173c0-4.168 0-6.25204-1.3667-7.5467-1.2213-1.15734-3.1066-1.28-6.6333-1.29334"/><path d="m14.0125 5.79319c.128-.55334.192-.83067.3147-1.056.1525-.26812.36-.50094.6088-.68317.2489-.18223.5335-.30974.8352-.37417.2706-.06266.5853-.06266 1.212-.06266.6266 0 .9413 0 1.212.06266.3016.06443.5862.19194.8351.37417s.4564.41505.6089.68317c.1226.22666.1866.50266.3146 1.056l.1107.48c.2267.98.34 1.47066.1693 1.848-.1163.25044-.3054.46-.5426.60133-.3747.228-.932.228-2.044.228h-1.328c-1.112 0-1.6694 0-2.044-.22667-.2375-.14168-.4266-.35173-.5427-.60266-.1707-.37734-.0573-.86667.1693-1.848z"/></g></svg>