<svg fill="none" height="33" viewBox="0 0 33 33" width="33" xmlns="http://www.w3.org/2000/svg" xmlns:xlink="http://www.w3.org/1999/xlink"><clipPath id="a"><path d="m.927002.953125h32v32h-32z"/></clipPath><g clip-path="url(#a)"><path d="m9.63816 17.6651h14.57774v2.7378h1.4223v-3.16c0-.5523-.4478-1-1-1h-7v-2.8445h-1.4223v2.8445h-6.99996c-.55228 0-1 .4477-1 1v3.16h1.42222z" fill="#ffb30f"/><g stroke="#ffb30f" stroke-width="2"><path d="m13.3715 21.3984h-8.88889c-.98184 0-1.77778.796-1.77778 1.7778v5.3333c0 .9819.79594 1.7778 1.77778 1.7778h8.88889c.9818 0 1.7778-.7959 1.7778-1.7778v-5.3333c0-.9818-.796-1.7778-1.7778-1.7778z"/><path d="m29.3715 21.3984h-8.8889c-.9818 0-1.7778.796-1.7778 1.7778v5.3333c0 .9819.796 1.7778 1.7778 1.7778h8.8889c.9818 0 1.7778-.7959 1.7778-1.7778v-5.3333c0-.9818-.796-1.7778-1.7778-1.7778z"/><path d="m21.3715 3.61719h-8.8889c-.9818 0-1.7778.79594-1.7778 1.77778v5.33333c0 .9818.796 1.7778 1.7778 1.7778h8.8889c.9818 0 1.7778-.796 1.7778-1.7778v-5.33333c0-.98184-.796-1.77778-1.7778-1.77778z"/></g></g></svg>