<svg fill="none" height="33" viewBox="0 0 33 33" width="33" xmlns="http://www.w3.org/2000/svg"><path d="m20.3708 8.63663c-.2443.24924-.3811.58433-.3811.93333s.1368.68414.3811.93334l2.1333 2.1333c.2493.2443.5844.3812.9334.3812s.6841-.1369.9333-.3812l5.0267-5.02664c.6704 1.48159.8734 3.13234.5819 4.73224-.2915 1.5998-1.0636 3.0729-2.2136 4.2228-1.1499 1.1499-2.6229 1.9221-4.2228 2.2136s-3.2506.0885-4.7322-.582l-9.21333 9.2134c-.53043.5304-1.24985.8284-2 .8284s-1.46957-.298-2-.8284c-.53043-.5305-.82843-1.2499-.82843-2 0-.7502.298-1.4696.82843-2l9.21333-9.2134c-.6704-1.4816-.8734-3.1323-.5819-4.73217.2915-1.59988 1.0636-3.07293 2.2135-4.22284s2.623-1.92207 4.2229-2.21357c1.5999-.29151 3.2506-.08851 4.7322.58194l-5.0134 5.01333z" stroke="#ffb30f" stroke-linecap="round" stroke-linejoin="round" stroke-width="2"/></svg>