<svg fill="none" height="2048" viewBox="0 0 2048 2048" width="2048" xmlns="http://www.w3.org/2000/svg" xmlns:xlink="http://www.w3.org/1999/xlink"><filter id="a" color-interpolation-filters="sRGB" filterUnits="userSpaceOnUse" height="1564.52" width="2065.91" x="-9.57821" y="486.512"><feFlood flood-opacity="0" result="BackgroundImageFix"/><feColorMatrix in="SourceAlpha" result="hardAlpha" type="matrix" values="0 0 0 0 0 0 0 0 0 0 0 0 0 0 0 0 0 0 127 0"/><feOffset/><feGaussianBlur stdDeviation="4.16667"/><feColorMatrix type="matrix" values="0 0 0 0 0 0 0 0 0 0 0 0 0 0 0 0 0 0 0.25 0"/><feBlend in2="BackgroundImageFix" mode="overlay" result="effect1_dropShadow_3567_407"/><feBlend in="SourceGraphic" in2="effect1_dropShadow_3567_407" mode="normal" result="shape"/></filter><filter id="b" color-interpolation-filters="sRGB" filterUnits="userSpaceOnUse" height="2054.11" width="656.667" x="1399.67" y="-3.05404"><feFlood flood-opacity="0" result="BackgroundImageFix"/><feColorMatrix in="SourceAlpha" result="hardAlpha" type="matrix" values="0 0 0 0 0 0 0 0 0 0 0 0 0 0 0 0 0 0 127 0"/><feOffset/><feGaussianBlur stdDeviation="4.16667"/><feColorMatrix type="matrix" values="0 0 0 0 0 0 0 0 0 0 0 0 0 0 0 0 0 0 0.25 0"/><feBlend in2="BackgroundImageFix" mode="overlay" result="effect1_dropShadow_3567_407"/><feBlend in="SourceGraphic" in2="effect1_dropShadow_3567_407" mode="normal" result="shape"/></filter><linearGradient id="c" gradientUnits="userSpaceOnUse" x1="1022.75" x2="1022.75" y1="5.27929" y2="2042.72"><stop offset="0" stop-color="#fff"/><stop offset="1" stop-color="#fff" stop-opacity="0"/></linearGradient><mask id="d" height="2038" maskUnits="userSpaceOnUse" width="2048" x="0" y="5"><path clip-rule="evenodd" d="m1452.28 2034.01c32.25 12.57 69.03 11.77 101.59-3.9l421.65-202.89c44.3-21.32 72.48-66.16 72.48-115.35v-1375.726c0-49.193-28.17-94.034-72.48-115.353l-421.65-202.8965c-42.73-20.55956-92.73-15.52375-130.23 11.739-5.36 3.8945-10.46 8.2428-15.25 13.0347l-807.198 736.4218-351.598-266.893c-32.731-24.845-78.512-22.809-108.91 4.843l-112.7691 102.58c-37.18316 33.823-37.22577 92.32-.0922 126.2l304.9183 278.18-304.9183 278.18c-37.13357 33.88-37.09096 92.38.0922 126.2l112.7691 102.58c30.398 27.66 76.179 29.69 108.91 4.85l351.598-266.9 807.198 736.42c12.77 12.78 27.76 22.4 43.89 28.68zm84.03-1474.928-612.476 464.918 612.476 464.92z" fill="#fff" fill-rule="evenodd"/></mask><g mask="url(#d)"><path d="m1975.53 221.107-421.98-203.1752c-48.85-23.51748-107.22-13.5973-145.55 24.7355l-1381.4052 1259.5127c-37.1563 33.88-37.1135 92.38.0922 126.2l112.837 102.58c30.418 27.65 76.227 29.69 108.976 4.85l1663.53-1261.994c55.81-42.338 135.97-2.533 135.97 67.519v-4.899c0-49.173-28.17-93.997-72.47-115.329z" fill="#1384d0"/><g filter="url(#a)"><path d="m1975.53 1826.89-421.98 203.18c-48.85 23.52-107.22 13.6-145.55-24.74l-1381.4052-1259.512c-37.1563-33.878-37.1135-92.377.0922-126.2l112.837-102.58c30.418-27.652 76.227-29.688 108.976-4.843l1663.53 1261.985c55.81 42.34 135.97 2.54 135.97-67.51v4.9c0 49.17-28.17 93.99-72.47 115.32z" fill="#1384d0"/></g><g filter="url(#b)"><path d="m1553.57 2030.11c-48.86 23.5-107.23 13.56-145.57-24.78 47.24 47.24 128 13.78 128-53.02v-1856.6242c0-66.8005-80.76-100.25445-128-53.0195 38.34-38.33623 96.71-48.27042 145.57-24.7737l421.9 202.8964c44.34 21.32 72.53 66.161 72.53 115.354v1375.717c0 49.2-28.19 94.04-72.53 115.36z" fill="#1384d0"/></g><path clip-rule="evenodd" d="m1451.03 2034.01c32.26 12.57 69.04 11.76 101.59-3.9l421.65-202.89c44.31-21.32 72.48-66.16 72.48-115.36v-1375.716c0-49.195-28.17-94.036-72.48-115.356l-421.65-202.8954c-42.72-20.5596-92.73-15.52379-130.23 11.7388-5.35 3.8947-10.46 8.243-15.25 13.0349l-807.193 736.4207-351.598-266.891c-32.729-24.846-78.511-22.809-108.91 4.841l-112.769 102.581c-37.1831 33.824-37.2258 92.321-.0921 126.199l304.9171 278.183-304.9171 278.18c-37.1337 33.88-37.091 92.38.0921 126.2l112.769 102.58c30.399 27.65 76.181 29.69 108.91 4.84l351.598-266.89 807.193 736.42c12.77 12.78 27.77 22.4 43.89 28.68zm84.04-1474.929-612.481 464.919 612.481 464.92z" fill="url(#c)" fill-rule="evenodd" opacity=".25"/></g></svg>